/* XPM */
static char *frame_3_door_Tavola_disegno_11679577535[] = {
/* columns rows colors chars-per-pixel */
"65 65 79 1 ",
"  c None",
". c #602D4E",
"X c #774C6E",
"o c #685062",
"O c #6A5164",
"+ c #6F5569",
"@ c #7C5B77",
"# c #9E005D",
"$ c #A80F6E",
"% c #AB1373",
"& c #AB1374",
"* c #AC1576",
"= c #B01A7C",
"- c #83697F",
"; c #B9804B",
": c #C68F4B",
"> c #D1867D",
", c #8A5985",
"< c #8A5D85",
"1 c #925F8D",
"2 c #935F8E",
"3 c #9A5C95",
"4 c #856481",
"5 c #896085",
"6 c #846B80",
"7 c #91798D",
"8 c #9E6A97",
"9 c #9B7D95",
"0 c #A365A0",
"q c #AF66A6",
"w c #AD69AA",
"e c #AD6AAB",
"r c #AC6EA9",
"t c #B069AE",
"y c #A976A6",
"u c #A779A5",
"i c #AD7AAB",
"p c #B86DB5",
"a c #CE76CE",
"s c #D87AC3",
"d c #E264D4",
"f c #A589A1",
"g c #B285AF",
"h c #B78AB6",
"j c #B68DB4",
"k c #B59CB3",
"l c #B99EB7",
"z c #BC97BB",
"x c #DF8A97",
"c c #DDA581",
"v c #C380C2",
"b c #C881C8",
"n c #C79AC7",
"m c #D680D6",
"M c #F08DC1",
"N c #C5A1C2",
"B c #C5A6C5",
"V c #C8A7C9",
"C c #CFA3CD",
"Z c #CEABCC",
"A c #CEB3CE",
"S c #D9A4D6",
"D c #D0AAD2",
"F c #D4AED5",
"G c #D5ACD6",
"H c #CFB5D0",
"J c #D2B0D3",
"K c #D1B2D2",
"L c #D3B7D4",
"P c #D6B9D7",
"I c #D5BAD6",
"U c #D7B1D8",
"Y c #DAB0DB",
"T c #DCB0DE",
"R c #F986FC",
"E c #E5A2E7",
"W c #E6A8E8",
"Q c #E5BEE7",
"! c #F6C2F9",
/* pixels */
"              $&===*###############################              ",
"              %dRRRR                              #              ",
"              %dRRRR                              #              ",
"              %dRRRR                              #              ",
"              %dRRRR                              #              ",
"              %dRRRR                              #              ",
"              %I7YQu                              #              ",
"              &I6T!u                              #              ",
"              %K6J!u                              #              ",
"              %A6Jny                              #              ",
"              %C5Gpe                              #              ",
"              %C5Gpe                              #              ",
"              %C5Gpe                              #              ",
"              %C5Gpe                              #              ",
"              %C5Gpe                              #              ",
"              %C5Gpe                              #              ",
"              %C5Fpe                              #              ",
"              %C<Fpe                              #              ",
"              %C5Gpe                              #              ",
"              %C5Fpe                              #              ",
"              %C5Gpe                              #              ",
"              %C5Gpe                              #              ",
"              %C5Gpe                              #              ",
"              %C5Gpe                              #              ",
"              %C5Gpe                              #              ",
"              %C5Gpe                              #              ",
"              %C5Gpe                              #              ",
"              %C5Gpe                              #              ",
"              %C5Gpe                              #              ",
"              %C5Gpe                              #              ",
"              %C5Gpe                              #              ",
"              %N@D20                              #              ",
"              %kOB.<                              #              ",
"              %lOz.<                              #              ",
"              %9Og.<                              #              ",
"              %8-a3t                              #              ",
"              %dRRRR                              #              ",
"              %dRRRR                              #              ",
"              %dRRRR                              #              ",
"              %dRRRR                              #              ",
"              %dRRM>                              #              ",
"              %dRR>:                              #              ",
"              *dRR>-                              #              ",
"              %dRRRs                              #              ",
"              %dRRRR                              #              ",
"              %dRRRR                              #              ",
"              %SjWQb                              #              ",
"              %L-U!j                              #              ",
"              %Z4Fir                              #              ",
"              %C5Gpe                              #              ",
"              %C5Gpe                              #              ",
"              %C5Gpe                              #              ",
"              %C5Gpe                              #              ",
"              %C5Gpe                              #              ",
"              %C5Gpe                              #              ",
"              %C5Gpe                              #              ",
"              %C5Fpe                              #              ",
"              %C<Fpe                              #              ",
"              %l+VX1                              #              ",
"              %foj.<                              #              ",
"              %qwmpa                              #              ",
"              %dRRRR                              #              ",
"              %dRRRR                              #              ",
"              $&===*###############################              ",
"                                                                 "
};
