/* XPM */
static char *frame_2_door_Tavola_disegno_11679577535[] = {
/* columns rows colors chars-per-pixel */
"65 65 93 2 ",
"   c None",
".  c #602D4E",
"X  c #603150",
"o  c #623B54",
"O  c #623F56",
"+  c #6E3E5F",
"@  c #624157",
"#  c #634659",
"$  c #684E60",
"%  c #714E69",
"&  c #754C6C",
"*  c #685061",
"=  c #685062",
"-  c #6B5164",
";  c #6E5267",
":  c #6F5168",
">  c #6F5568",
",  c #71526A",
"<  c #75566E",
"1  c #7A4A70",
"2  c #7E4C74",
"3  c #7A5B73",
"4  c #7C6276",
"5  c #8E6C11",
"6  c #9E005D",
"7  c #A80F6E",
"8  c #AB1373",
"9  c #AB1374",
"0  c #B01A7C",
"q  c #80657B",
"w  c #87627D",
"e  c #B48714",
"r  c #BB8D13",
"t  c #DABA51",
"y  c #8A5985",
"u  c #935F8E",
"i  c #995F93",
"p  c #9A5C95",
"a  c #9B7194",
"s  c #AD69AA",
"d  c #AD7AAB",
"f  c #B86DB5",
"g  c #BA6DB8",
"h  c #BB76B9",
"j  c #CA71BE",
"k  c #C87BC7",
"l  c #E264D4",
"z  c #9B8197",
"x  c #A3819E",
"c  c #A886A6",
"v  c #AF85AD",
"b  c #B682B5",
"n  c #B68EB3",
"m  c #B78AB6",
"M  c #BA86B9",
"N  c #BA90B8",
"B  c #BFA4BE",
"V  c #BFA6BE",
"C  c #E29282",
"Z  c #C38EC1",
"A  c #E686C1",
"S  c #E982DD",
"D  c #C3A8C3",
"F  c #C6ADC6",
"G  c #D3A0D4",
"H  c #DAAFDB",
"J  c #DDA9DE",
"K  c #CFB4D0",
"L  c #D0B0D1",
"P  c #D1B5D3",
"I  c #D2B7D3",
"U  c #D3B5D5",
"Y  c #D0B8D1",
"T  c #D4BAD6",
"R  c #DAB6DB",
"E  c #DCB1DE",
"W  c #DBB6DD",
"Q  c #DDB7DE",
"!  c #D7BAD9",
"~  c #E79DE9",
"^  c #F986FC",
"/  c #E0ABE1",
"(  c #E6A8E8",
")  c #E0B5E2",
"_  c #E2B2E4",
"`  c #E5B4E5",
"'  c #E1BDE3",
"]  c #E5BEE6",
"[  c #E5BEE7",
"{  c #E6B3E8",
"}  c #EBBFEE",
"|  c #F2C1F5",
" . c #F6C2F9",
/* pixels */
"                            7 9 0 0 0 0 0 0 0 0 0 0 0 0 0 0 0 0 0 0 7 6 6 6 6 6 6 6 6 6 6 6 6 6 6 6 6                             ",
"                            8 l ^ ^ ^ ^ ^ ^ ^ ^ ^ ^ ^ ^ ^ ^ ^ ^ ^ ^ ^                               6                             ",
"                            8 l ^ ^ ^ ^ ^ ^ ^ ^ ^ ^ ^ ^ ^ ^ ^ ^ ^ ^ ^                               6                             ",
"                            8 l ^ ^ ^ ^ ^ ^ ^ ^ ^ ^ ^ ^ ^ ^ ^ ^ ^ ^ ^                               6                             ",
"                            8 l ^ ^ ^ ^ ^ ^ ^ ^ ^ ^ ^ ^ ^ ^ ^ ^ ^ ^ ^                               6                             ",
"                            8 l ^ ^ ^ ^ ^ ^ ^ ^ ^ ^ ^ ^ ^ ^ ^ ^ ^ ^ ^                               6                             ",
"                            8 l U [ [ [ [ [ z ^ ^ ^ Y [ [ [ [ [ c ^ ^                               6                             ",
"                            8 l P  . . . . .4 ^ ^ ^ P  . . . . .q ^ ^                               6                             ",
"                            8 l ) [  . . . .- ^ ^ ^ T  . . . .` < ^ ^                               6                             ",
"                            8 l { Q { { { N O ^ ^ ^ [ R { { { c 2 ^ ^                               6                             ",
"                            8 l { ( ^ ^ ^ f o ^ ^ ^ [ ~ ^ ^ ^ f 2 ^ ^                               6                             ",
"                            8 l { ( ^ ^ ^ f o ^ ^ ^ [ ~ ^ ^ ^ f 2 ^ ^                               6                             ",
"                            8 l { ( ^ ^ ^ f o ^ ^ ^ [ ~ ^ ^ ^ f 2 ^ ^                               6                             ",
"                            8 l { ( ^ ^ ^ f o ^ ^ ^ [ ~ ^ ^ ^ f 2 ^ ^                               6                             ",
"                            8 l { ( ^ ^ ^ f o ^ ^ ^ [ ~ ^ ^ ^ f 2 ^ ^                               6                             ",
"                            8 l { ( ^ ^ ^ f o ^ ^ ^ [ ~ ^ ^ ^ f 2 ^ ^                               6                             ",
"                            8 l { ( ^ ^ ^ f o ^ ^ ^ [ ~ ^ ^ ^ f 2 ^ ^                               6                             ",
"                            8 l { ( ^ ^ ^ f o ^ ^ ^ [ ~ ^ ^ ^ f 2 ^ ^                               6                             ",
"                            8 l { ( ^ ^ ^ f o ^ ^ ^ [ ~ ^ ^ ^ f 2 ^ ^                               6                             ",
"                            8 l { ( ^ ^ ^ f o ^ ^ ^ [ ~ ^ ^ ^ f 2 ^ ^                               6                             ",
"                            8 l { ( ^ ^ ^ f o ^ ^ ^ [ ~ ^ ^ ^ f 2 ^ ^                               6                             ",
"                            8 l { ( ^ ^ ^ f o ^ ^ ^ [ ~ ^ ^ ^ f 2 ^ ^                               6                             ",
"                            8 l { ( ^ ^ ^ f o ^ ^ ^ [ ~ ^ ^ ^ f 2 ^ ^                               6                             ",
"                            8 l { ( ^ ^ ^ f o ^ ^ ^ [ ~ ^ ^ ^ f 2 ^ ^                               6                             ",
"                            8 l { ( ^ ^ ^ f o ^ ^ ^ [ ~ ^ ^ ^ f 2 ^ ^                               6                             ",
"                            8 l { ( ^ ^ ^ f o ^ ^ ^ [ ~ ^ ^ ^ f 2 ^ ^                               6                             ",
"                            8 l { ( ^ ^ ^ f o ^ ^ ^ [ ~ ^ ^ ^ f 2 ^ ^                               6                             ",
"                            8 l { ( ^ ^ ^ f o ^ ^ ^ [ ~ ^ ^ ^ f 2 ^ ^                               6                             ",
"                            8 l { ( ^ ^ ^ f o ^ ^ ^ [ ~ ^ ^ ^ f 2 ^ ^                               6                             ",
"                            8 l { ( ^ ^ ^ f o ^ ^ ^ [ ~ ^ ^ ^ f 2 ^ ^                               6                             ",
"                            8 l { ( ^ ^ ^ f o ^ ^ ^ [ ~ ^ ^ ^ f 2 ^ ^                               6                             ",
"                            8 l { G f f f u o ^ ^ ^ [ Z f f f u 2 ^ ^                               6                             ",
"                            8 l _ d . . . X # ^ ^ ^ ' w . . . @ 1 ^ ^                               6                             ",
"                            8 l L $ . . . X # ^ ^ ^ K . . . . . ; ^ ^                               6                             ",
"                            8 l B . . . . . - ^ ^ ^ V . . . . . , ^ ^                               6                             ",
"                            8 l d p p p p p y ^ ^ ^ v p p p p p i ^ ^                               6                             ",
"                            8 l ^ ^ ^ ^ ^ ^ ^ ^ ^ ^ ^ ^ ^ ^ ^ ^ ^ ^ ^                               6                             ",
"                            8 l ^ ^ ^ ^ ^ ^ ^ ^ ^ ^ ^ ^ ^ ^ ^ ^ ^ ^ ^                               6                             ",
"                            8 l ^ ^ ^ ^ ^ ^ ^ ^ ^ ^ ^ ^ ^ ^ ^ ^ ^ ^ ^                               6                             ",
"                            8 l ^ ^ ^ ^ ^ ^ ^ ^ ^ ^ ^ ^ ^ ^ ^ ^ ^ ^ ^                               6                             ",
"                            8 l ^ ^ ^ ^ ^ ^ ^ ^ ^ ^ ^ ^ ^ ^ ^ C A ^ ^                               6                             ",
"                            8 l ^ ^ ^ ^ ^ ^ ^ ^ ^ ^ ^ ^ ^ ^ ^ t e ^ ^                               6                             ",
"                            8 l ^ ^ ^ ^ ^ ^ ^ ^ ^ ^ ^ ^ ^ ^ ^ r 5 ^ ^                               6                             ",
"                            8 l ^ ^ ^ ^ ^ ^ ^ ^ ^ ^ ^ ^ ^ ^ ^ S j ^ ^                               6                             ",
"                            8 l ^ ^ ^ ^ ^ ^ ^ ^ ^ ^ ^ ^ ^ ^ ^ ^ ^ ^ ^                               6                             ",
"                            8 l ^ ^ ^ ^ ^ ^ ^ ^ ^ ^ ^ ^ ^ ^ ^ ^ ^ ^ ^                               6                             ",
"                            8 l / ( ( ( ( ( N ^ ^ ^ H ( ( ( ( ( M ^ ^                               6                             ",
"                            8 l Q }  . . . ., ^ ^ ^ ! |  . . .{ 3 ^ ^                               6                             ",
"                            8 l { H ~ ~ ~ d O ^ ^ ^ [ J ~ ~ ~ d 2 ^ ^                               6                             ",
"                            8 l { ( ^ ^ ^ f o ^ ^ ^ [ ~ ^ ^ ^ f 2 ^ ^                               6                             ",
"                            8 l { ( ^ ^ ^ f o ^ ^ ^ [ ~ ^ ^ ^ f 2 ^ ^                               6                             ",
"                            8 l { ( ^ ^ ^ f o ^ ^ ^ [ ~ ^ ^ ^ f 2 ^ ^                               6                             ",
"                            8 l { ( ^ ^ ^ f o ^ ^ ^ [ ~ ^ ^ ^ f 2 ^ ^                               6                             ",
"                            8 l { ( ^ ^ ^ f o ^ ^ ^ [ ~ ^ ^ ^ f 2 ^ ^                               6                             ",
"                            8 l { ( ^ ^ ^ f o ^ ^ ^ [ ~ ^ ^ ^ f 2 ^ ^                               6                             ",
"                            8 l { ( ^ ^ ^ f o ^ ^ ^ [ ~ ^ ^ ^ f 2 ^ ^                               6                             ",
"                            8 l { ( ^ ^ ^ f o ^ ^ ^ [ ~ ^ ^ ^ f 2 ^ ^                               6                             ",
"                            8 l { ( ^ ^ ^ f O ^ ^ ^ [ ~ ^ ^ ^ f 2 ^ ^                               6                             ",
"                            8 l _ n 2 2 2 & @ ^ ^ ^ ' a 2 2 2 % 1 ^ ^                               6                             ",
"                            8 l D . . . . . $ ^ ^ ^ F . . . . . , ^ ^                               6                             ",
"                            8 l k f f f f f s ^ ^ ^ h f f f f f g ^ ^                               6                             ",
"                            8 l ^ ^ ^ ^ ^ ^ ^ ^ ^ ^ ^ ^ ^ ^ ^ ^ ^ ^ ^                               6                             ",
"                            8 l ^ ^ ^ ^ ^ ^ ^ ^ ^ ^ ^ ^ ^ ^ ^ ^ ^ ^ ^                               6                             ",
"                            7 9 0 0 0 0 0 0 0 0 0 0 0 0 0 0 0 0 0 0 7 6 6 6 6 6 6 6 6 6 6 6 6 6 6 6 6                             ",
"                                                                                                                                  "
};
