/* XPM */
static char *frame_1_door_Tavola_disegno_11679577535[] = {
/* columns rows colors chars-per-pixel */
"65 65 106 2 ",
"   c None",
".  c #775D0C",
"X  c #602D4E",
"o  c #603150",
"O  c #613753",
"+  c #623B54",
"@  c #623D54",
"#  c #623F56",
"$  c #6E3E5F",
"%  c #624257",
"&  c #67415B",
"*  c #65445B",
"=  c #67475D",
"-  c #69415D",
";  c #69435E",
":  c #68455D",
">  c #674A5E",
",  c #6C4A63",
"<  c #734B69",
"1  c #754B69",
"2  c #754C6C",
"3  c #6A5063",
"4  c #6B5164",
"5  c #7E4C74",
"6  c #795170",
"7  c #9E005D",
"8  c #A30866",
"9  c #A80F6E",
"0  c #AB1373",
"q  c #AB1374",
"w  c #B01A7C",
"e  c #85577E",
"r  c #835F7C",
"t  c #BC9202",
"y  c #B28614",
"u  c #D18F51",
"i  c #DE936C",
"p  c #E3C34D",
"a  c #935A8E",
"s  c #935F8E",
"d  c #9A5C95",
"f  c #8D6886",
"g  c #8E6986",
"h  c #897185",
"j  c #9B7194",
"k  c #A27A9B",
"l  c #A37F9D",
"z  c #AC69AA",
"x  c #AD69AA",
"c  c #A473A1",
"v  c #AF76AD",
"b  c #AD7AAB",
"n  c #AA7FA8",
"m  c #B86DB5",
"M  c #BB6EB9",
"N  c #BB76B9",
"B  c #D477C0",
"V  c #D676CD",
"C  c #D678D6",
"Z  c #E264D4",
"A  c #AA86A8",
"S  c #B68EB3",
"D  c #B791B5",
"F  c #B8A0B7",
"G  c #BEA2BD",
"H  c #C38EC1",
"J  c #CF82CF",
"K  c #C69FC4",
"L  c #CA91CA",
"P  c #C99DC8",
"I  c #D680D6",
"U  c #D69CD6",
"Y  c #F08ACE",
"T  c #E982DD",
"R  c #C4A2C3",
"E  c #D3A0D4",
"W  c #D3A3D4",
"Q  c #D6A4D7",
"!  c #DDA9DE",
"~  c #DCAFDE",
"^  c #D2B7D3",
"/  c #D3B2D5",
"(  c #D2B8D3",
")  c #D3BAD5",
"_  c #DCB1DE",
"`  c #DDB7DE",
"'  c #D8BADA",
"]  c #DDBBDF",
"[  c #DDBCDF",
"{  c #ED81EC",
"}  c #E79DE9",
"|  c #F986FC",
" . c #DFB5E0",
".. c #E3A5E5",
"X. c #E4ABE6",
"o. c #E6A8E8",
"O. c #E5B4E5",
"+. c #E1BAE4",
"@. c #E3BBE5",
"#. c #E3BDE5",
"$. c #E5BEE7",
"%. c #E6B3E8",
"&. c #E9BFEC",
"*. c #EBBFEE",
"=. c #F2C1F5",
"-. c #F6C2F9",
/* pixels */
"                            9 q w w w w w w w w w w w w w w w w w w w w w w w w w w 8 7 7 7 7 7 7 7 7                             ",
"                            0 Z | | | | | | | | | | | | | | | | | | | | | | | | | |                 7                             ",
"                            0 Z | | | | | | | | | | | | | | | | | | | | | | | | | |                 7                             ",
"                            0 Z | | | | | | | | | | | | | | | | | | | | | | | | | |                 7                             ",
"                            0 Z | | | | | | | | | | | | | | | | | | | | | | | | | |                 7                             ",
"                            0 Z | | | | | | | | | | | | | | | | | | | | | | | | | |                 7                             ",
"                            0 Z | ) $.$.$.$.$.$.$.R v | | | / #.$.$.$.$.$.$.$.h | |                 7                             ",
"                            0 Z | ^ -.-.-.-.-.-.-.f m | | | o.] -.-.-.-.-.-.-.4 | |                 7                             ",
"                            0 Z | [ *.-.-.-.-.-.-.& m | | | o.@.-.-.-.-.-.-.D # | |                 7                             ",
"                            0 Z | $.` %.%.%.%.%.A X m | | | o.=. .%.%.%.%.%.r + | |                 7                             ",
"                            0 Z | $.o.| | | | | m X m | | | o.-.} | | | | | 5 + | |                 7                             ",
"                            0 Z | $.o.| | | | | m X m | | | o.-.} | | | | | 5 + | |                 7                             ",
"                            0 Z | $.o.| | | | | m X m | | | o.-.} | | | | | 5 + | |                 7                             ",
"                            0 Z | $.o.| | | | | m X m | | | o.-.} | | | | | 5 + | |                 7                             ",
"                            0 Z | $.o.| | | | | m X m | | | o.-.} | | | | | 5 + | |                 7                             ",
"                            0 Z | $.o.| | | | | m X m | | | o.-.} | | | | | 5 + | |                 7                             ",
"                            0 Z | $.o.| | | | | m X m | | | o.-.} | | | | | 5 + | |                 7                             ",
"                            0 Z | $.o.| | | | | m X m | | | o.-.} | | | | | 5 + | |                 7                             ",
"                            0 Z | $.o.| | | | | m X m | | | o.-.} | | | | | 5 + | |                 7                             ",
"                            0 Z | $.o.| | | | | m X m | | | o.-.} | | | | | 5 + | |                 7                             ",
"                            0 Z | $.o.| | | | | m X m | | | o.-.} | | | | | 5 + | |                 7                             ",
"                            0 Z | $.o.| | | | | m X m | | | o.-.} | | | | | 5 + | |                 7                             ",
"                            0 Z | $.o.| | | | | m X m | | | o.-.} | | | | | 5 + | |                 7                             ",
"                            0 Z | $.o.| | | | | m X m | | | o.-.} | | | | | 5 + | |                 7                             ",
"                            0 Z | $.o.| | | | | m X m | | | o.-.} | | | | | 5 + | |                 7                             ",
"                            0 Z | $.o.| | | | | m X m | | | o.-.} | | | | | 5 + | |                 7                             ",
"                            0 Z | $.o.| | | | | m X m | | | o.-.} | | | | | 5 + | |                 7                             ",
"                            0 Z | $.o.| | | | | m X m | | | o.-.} | | | | | 5 + | |                 7                             ",
"                            0 Z | $.o.| | | | | m X m | | | o.-.} | | | | | 5 + | |                 7                             ",
"                            0 Z | $.o.| | | | | m X m | | | o.-.} | | | | | 5 + | |                 7                             ",
"                            0 Z | $.o.| | | | | m X m | | | o.-.} | | | | | 5 + | |                 7                             ",
"                            0 Z | $.E m m m m m s X m | | | o.-.H m m m m m < + | |                 7                             ",
"                            0 Z | $.l X X X X X + o m | | | o.*.$ X X X X X : + | |                 7                             ",
"                            0 Z | ( X X X X X X X - m | | | o.R X X X X X X O % | |                 7                             ",
"                            0 Z | F X X X X X X X * m | | | Q f X X X X X X X 3 | |                 7                             ",
"                            0 Z | c d d d d d d d a M | | | L d d d d d d d d e | |                 7                             ",
"                            0 Z | | | | | | | | | | | | | | | | | | | | | | | | | |                 7                             ",
"                            0 Z | | | | | | | | | | | | | | | | | | | | | | | | | |                 7                             ",
"                            0 Z | | | | | | | | | | | | | | | | | | | | | | | | | |                 7                             ",
"                            0 Z | | | | | | | | | | | | | | | | | | | | | | | | | |                 7                             ",
"                            0 Z | | | | | | | | | | | | | | | | | | | | | | u T | |                 7                             ",
"                            0 Z | | | | | | | | | | | | | | | | | | | | | i p y | |                 7                             ",
"                            0 Z | | | | | | | | | | | | | | | | | | | | | Y t . { |                 7                             ",
"                            0 Z | | | | | | | | | | | | | | | | | | | | | | B V | |                 7                             ",
"                            0 Z | | | | | | | | | | | | | | | | | | | | | | | | | |                 7                             ",
"                            0 Z | | | | | | | | | | | | | | | | | | | | | | | | | |                 7                             ",
"                            0 Z | X.o.o.o.o.X.o.o.U J | | | ..X.o.o.o.o.o.o.o.n | |                 7                             ",
"                            0 Z | ' *.-.-.-.-.-.O.1 m | | | o.@.-.-.-.-.-.-.P = | |                 7                             ",
"                            0 Z | $._ } } } } } b X m | | | o.=.! } } } } } 6 + | |                 7                             ",
"                            0 Z | $.o.| | | | | m X m | | | o.-.} | | | | | 5 + | |                 7                             ",
"                            0 Z | $.o.| | | | | m X m | | | o.-.} | | | | | 5 + | |                 7                             ",
"                            0 Z | $.o.| | | | | m X m | | | o.-.} | | | | | 5 + | |                 7                             ",
"                            0 Z | $.o.| | | | | m X m | | | o.-.} | | | | | 5 + | |                 7                             ",
"                            0 Z | $.o.| | | | | m X m | | | o.-.} | | | | | 5 + | |                 7                             ",
"                            0 Z | $.o.| | | | | m X m | | | o.-.} | | | | | 5 + | |                 7                             ",
"                            0 Z | $.o.| | | | | m X m | | | o.-.} | | | | | 5 + | |                 7                             ",
"                            0 Z | $.o.| | | | | m X m | | | o.-.} | | | | | 5 + | |                 7                             ",
"                            0 Z | $.o.| | | | | m X m | | | o.-.} | | | | | 5 + | |                 7                             ",
"                            0 Z | $.S 5 5 5 5 5 2 o m | | | o.=.j 5 5 5 5 5 , + | |                 7                             ",
"                            0 Z | G X X X X X X X : x | | | E k X X X X X X o > | |                 7                             ",
"                            0 Z | N m m m m m m m m C | | | I m m m m m m m m x | |                 7                             ",
"                            0 Z | | | | | | | | | | | | | | | | | | | | | | | | | |                 7                             ",
"                            0 Z | | | | | | | | | | | | | | | | | | | | | | | | | |                 7                             ",
"                            9 q w w w w w w w w w w w w w w w w w w w w w w w w w w 8 7 7 7 7 7 7 7 7                             ",
"                                                                                                                                  "
};
