/* XPM */
static char *frame_4_door_Tavola_disegno_11679577535[] = {
/* columns rows colors chars-per-pixel */
"65 65 2 1 ",
"  c None",
". c #9E005D",
/* pixels */
"              .....................................              ",
"              .                                   .              ",
"              .                                   .              ",
"              .                                   .              ",
"              .                                   .              ",
"              .                                   .              ",
"              .                                   .              ",
"              .                                   .              ",
"              .                                   .              ",
"              .                                   .              ",
"              .                                   .              ",
"              .                                   .              ",
"              .                                   .              ",
"              .                                   .              ",
"              .                                   .              ",
"              .                                   .              ",
"              .                                   .              ",
"              .                                   .              ",
"              .                                   .              ",
"              .                                   .              ",
"              .                                   .              ",
"              .                                   .              ",
"              .                                   .              ",
"              .                                   .              ",
"              .                                   .              ",
"              .                                   .              ",
"              .                                   .              ",
"              .                                   .              ",
"              .                                   .              ",
"              .                                   .              ",
"              .                                   .              ",
"              .                                   .              ",
"              .                                   .              ",
"              .                                   .              ",
"              .                                   .              ",
"              .                                   .              ",
"              .                                   .              ",
"              .                                   .              ",
"              .                                   .              ",
"              .                                   .              ",
"              .                                   .              ",
"              .                                   .              ",
"              .                                   .              ",
"              .                                   .              ",
"              .                                   .              ",
"              .                                   .              ",
"              .                                   .              ",
"              .                                   .              ",
"              .                                   .              ",
"              .                                   .              ",
"              .                                   .              ",
"              .                                   .              ",
"              .                                   .              ",
"              .                                   .              ",
"              .                                   .              ",
"              .                                   .              ",
"              .                                   .              ",
"              .                                   .              ",
"              .                                   .              ",
"              .                                   .              ",
"              .                                   .              ",
"              .                                   .              ",
"              .                                   .              ",
"              .....................................              ",
"                                                                 "
};
